<mxfile host="app.diagrams.net" modified="2023-05-13T05:37:14.757Z" agent="Mozilla/5.0 (Windows NT 10.0; WOW64) AppleWebKit/537.36 (KHTML, like Gecko) Chrome/75.0.3770.100 Safari/537.36" version="21.3.0" etag="0ti-DRTTbAXWCTGictG_" type="github">
  <diagram name="第 1 页" id="oKay4BLXhj-NHpsi64dS">
    <mxGraphModel>
      <root>
        <mxCell id="0" />
        <mxCell id="1" parent="0" />
      </root>
    </mxGraphModel>
  </diagram>
</mxfile>
